<mxfile host="app.diagrams.net" agent="Mozilla/5.0 (Windows NT 10.0; Win64; x64) AppleWebKit/537.36 (KHTML, like Gecko) Chrome/132.0.0.0 Safari/537.36 OPR/117.0.0.0" version="26.2.8">
  <diagram name="Página-1" id="u62ROOtA9gfUyS0_7cMi">
    <mxGraphModel dx="833" dy="1622" grid="1" gridSize="10" guides="1" tooltips="1" connect="1" arrows="1" fold="1" page="1" pageScale="1" pageWidth="827" pageHeight="1169" math="0" shadow="0">
      <root>
        <mxCell id="0" />
        <mxCell id="1" parent="0" />
        <mxCell id="QxYwdTcjDPnxtFF1pD7m-1" value="" style="edgeStyle=orthogonalEdgeStyle;rounded=0;orthogonalLoop=1;jettySize=auto;html=1;" edge="1" parent="1" source="QxYwdTcjDPnxtFF1pD7m-2" target="QxYwdTcjDPnxtFF1pD7m-3">
          <mxGeometry relative="1" as="geometry" />
        </mxCell>
        <mxCell id="QxYwdTcjDPnxtFF1pD7m-2" value="Início" style="rounded=1;whiteSpace=wrap;html=1;fontSize=12;glass=0;strokeWidth=1;shadow=0;" vertex="1" parent="1">
          <mxGeometry x="92.5" y="-1140" width="60" height="40" as="geometry" />
        </mxCell>
        <mxCell id="QxYwdTcjDPnxtFF1pD7m-5" style="edgeStyle=orthogonalEdgeStyle;rounded=0;orthogonalLoop=1;jettySize=auto;html=1;entryX=0.5;entryY=0;entryDx=0;entryDy=0;" edge="1" parent="1" source="QxYwdTcjDPnxtFF1pD7m-3" target="QxYwdTcjDPnxtFF1pD7m-4">
          <mxGeometry relative="1" as="geometry" />
        </mxCell>
        <mxCell id="QxYwdTcjDPnxtFF1pD7m-3" value="&lt;div&gt;&lt;br&gt;&lt;/div&gt;&lt;div&gt;&lt;br&gt;&lt;/div&gt;Ler idade" style="shape=manualInput;whiteSpace=wrap;html=1;" vertex="1" parent="1">
          <mxGeometry x="77.5" y="-1010" width="90" height="60" as="geometry" />
        </mxCell>
        <mxCell id="QxYwdTcjDPnxtFF1pD7m-9" value="" style="edgeStyle=orthogonalEdgeStyle;rounded=0;orthogonalLoop=1;jettySize=auto;html=1;" edge="1" parent="1" source="QxYwdTcjDPnxtFF1pD7m-4" target="QxYwdTcjDPnxtFF1pD7m-8">
          <mxGeometry relative="1" as="geometry" />
        </mxCell>
        <mxCell id="QxYwdTcjDPnxtFF1pD7m-12" value="Verdadeiro" style="edgeLabel;html=1;align=center;verticalAlign=middle;resizable=0;points=[];" vertex="1" connectable="0" parent="QxYwdTcjDPnxtFF1pD7m-9">
          <mxGeometry x="-0.52" y="1" relative="1" as="geometry">
            <mxPoint as="offset" />
          </mxGeometry>
        </mxCell>
        <mxCell id="QxYwdTcjDPnxtFF1pD7m-11" value="" style="edgeStyle=orthogonalEdgeStyle;rounded=0;orthogonalLoop=1;jettySize=auto;html=1;" edge="1" parent="1" source="QxYwdTcjDPnxtFF1pD7m-4">
          <mxGeometry relative="1" as="geometry">
            <mxPoint x="247.5" y="-790" as="targetPoint" />
          </mxGeometry>
        </mxCell>
        <mxCell id="QxYwdTcjDPnxtFF1pD7m-13" value="Falso" style="edgeLabel;html=1;align=center;verticalAlign=middle;resizable=0;points=[];" vertex="1" connectable="0" parent="QxYwdTcjDPnxtFF1pD7m-11">
          <mxGeometry x="-0.2603" y="-1" relative="1" as="geometry">
            <mxPoint as="offset" />
          </mxGeometry>
        </mxCell>
        <mxCell id="QxYwdTcjDPnxtFF1pD7m-4" value="5 &amp;lt;= idade &amp;lt;= 10" style="rhombus;whiteSpace=wrap;html=1;" vertex="1" parent="1">
          <mxGeometry x="70" y="-840" width="105" height="100" as="geometry" />
        </mxCell>
        <mxCell id="QxYwdTcjDPnxtFF1pD7m-8" value="categoria = infantil" style="whiteSpace=wrap;html=1;" vertex="1" parent="1">
          <mxGeometry x="62.5" y="-640" width="120" height="60" as="geometry" />
        </mxCell>
        <mxCell id="QxYwdTcjDPnxtFF1pD7m-16" value="" style="edgeStyle=orthogonalEdgeStyle;rounded=0;orthogonalLoop=1;jettySize=auto;html=1;" edge="1" parent="1" source="QxYwdTcjDPnxtFF1pD7m-14" target="QxYwdTcjDPnxtFF1pD7m-15">
          <mxGeometry relative="1" as="geometry" />
        </mxCell>
        <mxCell id="QxYwdTcjDPnxtFF1pD7m-17" value="Verdadeiro" style="edgeLabel;html=1;align=center;verticalAlign=middle;resizable=0;points=[];" vertex="1" connectable="0" parent="QxYwdTcjDPnxtFF1pD7m-16">
          <mxGeometry x="-0.22" y="1" relative="1" as="geometry">
            <mxPoint x="-1" y="-9" as="offset" />
          </mxGeometry>
        </mxCell>
        <mxCell id="QxYwdTcjDPnxtFF1pD7m-19" value="" style="edgeStyle=orthogonalEdgeStyle;rounded=0;orthogonalLoop=1;jettySize=auto;html=1;" edge="1" parent="1" source="QxYwdTcjDPnxtFF1pD7m-14" target="QxYwdTcjDPnxtFF1pD7m-18">
          <mxGeometry relative="1" as="geometry" />
        </mxCell>
        <mxCell id="QxYwdTcjDPnxtFF1pD7m-20" value="Falso" style="edgeLabel;html=1;align=center;verticalAlign=middle;resizable=0;points=[];" vertex="1" connectable="0" parent="QxYwdTcjDPnxtFF1pD7m-19">
          <mxGeometry x="-0.125" y="2" relative="1" as="geometry">
            <mxPoint as="offset" />
          </mxGeometry>
        </mxCell>
        <mxCell id="QxYwdTcjDPnxtFF1pD7m-14" value="11 &amp;lt;= idade &amp;lt;= 17" style="rhombus;whiteSpace=wrap;html=1;" vertex="1" parent="1">
          <mxGeometry x="250" y="-840" width="105" height="100" as="geometry" />
        </mxCell>
        <mxCell id="QxYwdTcjDPnxtFF1pD7m-15" value="categoria = juvenil" style="whiteSpace=wrap;html=1;" vertex="1" parent="1">
          <mxGeometry x="242.5" y="-640" width="120" height="60" as="geometry" />
        </mxCell>
        <mxCell id="QxYwdTcjDPnxtFF1pD7m-28" value="" style="edgeStyle=orthogonalEdgeStyle;rounded=0;orthogonalLoop=1;jettySize=auto;html=1;" edge="1" parent="1" source="QxYwdTcjDPnxtFF1pD7m-18" target="QxYwdTcjDPnxtFF1pD7m-27">
          <mxGeometry relative="1" as="geometry" />
        </mxCell>
        <mxCell id="QxYwdTcjDPnxtFF1pD7m-29" value="Falso" style="edgeLabel;html=1;align=center;verticalAlign=middle;resizable=0;points=[];" vertex="1" connectable="0" parent="QxYwdTcjDPnxtFF1pD7m-28">
          <mxGeometry x="-0.2" relative="1" as="geometry">
            <mxPoint as="offset" />
          </mxGeometry>
        </mxCell>
        <mxCell id="QxYwdTcjDPnxtFF1pD7m-18" value="18 &amp;lt;= idade &amp;lt;= 60" style="rhombus;whiteSpace=wrap;html=1;" vertex="1" parent="1">
          <mxGeometry x="435" y="-840" width="105" height="100" as="geometry" />
        </mxCell>
        <mxCell id="QxYwdTcjDPnxtFF1pD7m-21" value="" style="edgeStyle=orthogonalEdgeStyle;rounded=0;orthogonalLoop=1;jettySize=auto;html=1;" edge="1" parent="1" target="QxYwdTcjDPnxtFF1pD7m-23">
          <mxGeometry relative="1" as="geometry">
            <mxPoint x="488" y="-740" as="sourcePoint" />
          </mxGeometry>
        </mxCell>
        <mxCell id="QxYwdTcjDPnxtFF1pD7m-22" value="Verdadeiro" style="edgeLabel;html=1;align=center;verticalAlign=middle;resizable=0;points=[];" vertex="1" connectable="0" parent="QxYwdTcjDPnxtFF1pD7m-21">
          <mxGeometry x="-0.22" y="1" relative="1" as="geometry">
            <mxPoint x="-1" y="-9" as="offset" />
          </mxGeometry>
        </mxCell>
        <mxCell id="QxYwdTcjDPnxtFF1pD7m-23" value="categoria = senior" style="whiteSpace=wrap;html=1;" vertex="1" parent="1">
          <mxGeometry x="427.5" y="-640" width="120" height="60" as="geometry" />
        </mxCell>
        <mxCell id="QxYwdTcjDPnxtFF1pD7m-30" style="edgeStyle=orthogonalEdgeStyle;rounded=0;orthogonalLoop=1;jettySize=auto;html=1;exitX=0;exitY=0;exitDx=67.5;exitDy=0;exitPerimeter=0;entryX=1;entryY=0.5;entryDx=0;entryDy=0;" edge="1" parent="1" source="QxYwdTcjDPnxtFF1pD7m-27" target="QxYwdTcjDPnxtFF1pD7m-3">
          <mxGeometry relative="1" as="geometry" />
        </mxCell>
        <mxCell id="QxYwdTcjDPnxtFF1pD7m-27" value="&quot;Valor inválido. Digite novamente&quot;" style="shape=display;whiteSpace=wrap;html=1;" vertex="1" parent="1">
          <mxGeometry x="580" y="-830" width="140" height="80" as="geometry" />
        </mxCell>
        <mxCell id="QxYwdTcjDPnxtFF1pD7m-36" value="" style="edgeStyle=orthogonalEdgeStyle;rounded=0;orthogonalLoop=1;jettySize=auto;html=1;" edge="1" parent="1" source="QxYwdTcjDPnxtFF1pD7m-31" target="QxYwdTcjDPnxtFF1pD7m-35">
          <mxGeometry relative="1" as="geometry" />
        </mxCell>
        <mxCell id="QxYwdTcjDPnxtFF1pD7m-31" value="categoria" style="shape=display;whiteSpace=wrap;html=1;" vertex="1" parent="1">
          <mxGeometry x="262.5" y="-460" width="80" height="40" as="geometry" />
        </mxCell>
        <mxCell id="QxYwdTcjDPnxtFF1pD7m-32" style="edgeStyle=orthogonalEdgeStyle;rounded=0;orthogonalLoop=1;jettySize=auto;html=1;entryX=0;entryY=0.5;entryDx=0;entryDy=0;entryPerimeter=0;" edge="1" parent="1" source="QxYwdTcjDPnxtFF1pD7m-8" target="QxYwdTcjDPnxtFF1pD7m-31">
          <mxGeometry relative="1" as="geometry" />
        </mxCell>
        <mxCell id="QxYwdTcjDPnxtFF1pD7m-33" style="edgeStyle=orthogonalEdgeStyle;rounded=0;orthogonalLoop=1;jettySize=auto;html=1;entryX=0;entryY=0;entryDx=40;entryDy=0;entryPerimeter=0;" edge="1" parent="1" source="QxYwdTcjDPnxtFF1pD7m-15" target="QxYwdTcjDPnxtFF1pD7m-31">
          <mxGeometry relative="1" as="geometry" />
        </mxCell>
        <mxCell id="QxYwdTcjDPnxtFF1pD7m-34" style="edgeStyle=orthogonalEdgeStyle;rounded=0;orthogonalLoop=1;jettySize=auto;html=1;entryX=1;entryY=0.5;entryDx=0;entryDy=0;entryPerimeter=0;" edge="1" parent="1" source="QxYwdTcjDPnxtFF1pD7m-23" target="QxYwdTcjDPnxtFF1pD7m-31">
          <mxGeometry relative="1" as="geometry" />
        </mxCell>
        <mxCell id="QxYwdTcjDPnxtFF1pD7m-35" value="Fim" style="rounded=1;whiteSpace=wrap;html=1;fontSize=12;glass=0;strokeWidth=1;shadow=0;" vertex="1" parent="1">
          <mxGeometry x="272.5" y="-320" width="60" height="40" as="geometry" />
        </mxCell>
      </root>
    </mxGraphModel>
  </diagram>
</mxfile>
